<?xml version="1.0" standalone="no"?>
<!DOCTYPE svg PUBLIC "-//W3C//DTD SVG 20010904//EN"
 "http://www.w3.org/TR/2001/REC-SVG-20010904/DTD/svg10.dtd">
<svg version="1.0" xmlns="http://www.w3.org/2000/svg" width="551.000000pt" height="551.000000pt" viewBox="0 0 551.000000 551.000000" preserveAspectRatio="xMidYMid meet">
<metadata>
Created by potrace 1.14, written by Peter Selinger 2001-2017
</metadata>
<g transform="translate(0.000000,551.000000) scale(0.100000,-0.100000)" fill="#000000" stroke="none">
<path d="M2918 5465 c-3 -3 -85 -16 -105 -18 -7 0 -13 -4 -13 -9 0 -4 -7 -8
-15 -8 -9 0 -40 -16 -70 -35 -30 -19 -55 -32 -55 -30 0 7 -109 -105 -142 -146
-16 -19 -34 -46 -40 -61 -7 -16 -17 -28 -21 -28 -5 0 -5 -4 -2 -10 3 -5 1 -10
-5 -10 -6 0 -9 -4 -5 -9 3 -5 -1 -15 -8 -23 -19 -19 -46 -114 -53 -183 -3 -33
-7 -65 -9 -72 -2 -7 0 -15 5 -18 6 -3 6 -15 0 -29 -5 -13 -6 -27 -2 -30 15
-15 24 -156 9 -156 -5 0 -7 -3 -4 -7 4 -3 2 -12 -4 -19 -10 -12 -22 -59 -20
-79 0 -5 3 -39 7 -75 3 -36 14 -90 25 -120 10 -30 20 -59 22 -65 1 -5 8 -16
15 -23 7 -8 10 -18 7 -23 -4 -5 -1 -9 4 -9 6 0 11 -9 11 -20 0 -32 45 -124 75
-154 15 -16 29 -39 31 -51 1 -13 5 -29 10 -36 5 -8 3 -9 -6 -4 -9 6 -11 4 -4
-6 8 -14 12 -75 15 -247 1 -87 0 -92 -23 -96 -7 -1 -19 -5 -25 -9 -7 -5 -13
-5 -13 0 0 4 -4 3 -8 -4 -4 -6 -19 -14 -32 -16 -14 -2 -32 -7 -40 -10 -32 -13
-165 -51 -172 -49 -5 1 -8 -3 -8 -10 0 -6 -3 -8 -7 -5 -3 4 -12 2 -20 -4 -7
-6 -13 -8 -13 -4 0 4 -6 2 -14 -4 -12 -10 -28 -16 -74 -25 -8 -1 -18 -9 -23
-17 -5 -8 -9 -11 -9 -7 0 4 -18 1 -39 -7 -22 -7 -42 -11 -45 -8 -3 4 -6 2 -6
-3 0 -10 -99 -50 -112 -46 -5 1 -8 -2 -8 -8 0 -5 -5 -10 -11 -10 -15 0 -158
-69 -185 -89 -12 -9 -32 -23 -44 -31 -34 -22 -82 -71 -111 -110 -29 -39 -82
-148 -94 -192 -2 -5 -4 -10 -5 -13 -1 -3 -4 -9 -5 -15 -1 -5 -4 -12 -5 -15 -1
-3 -3 -8 -4 -12 -1 -5 -5 -14 -9 -20 -5 -7 -6 -13 -3 -13 3 0 1 -11 -4 -25
-10 -26 -16 -54 -26 -115 -3 -19 -8 -46 -10 -60 -7 -33 -12 -116 -18 -280 -6
-143 -11 -187 -28 -229 -6 -14 -12 -30 -14 -36 -1 -5 -16 -44 -34 -85 -17 -41
-32 -83 -33 -92 -1 -10 -5 -18 -10 -18 -4 0 -6 -4 -3 -8 2 -4 -2 -37 -10 -72
-8 -36 -15 -72 -16 -80 0 -8 -5 -37 -10 -65 -5 -27 -13 -79 -18 -115 -5 -36
-12 -74 -14 -86 -2 -12 -7 -45 -11 -75 -4 -30 -9 -58 -12 -62 -2 -4 -5 -68 -5
-142 -1 -94 3 -139 12 -150 7 -8 10 -21 7 -30 -8 -19 85 -113 138 -140 22 -11
41 -23 43 -27 2 -5 10 -8 18 -8 8 0 22 -4 32 -9 37 -19 69 -32 82 -35 8 -2 23
-6 33 -9 9 -4 25 -10 35 -14 9 -3 22 -7 27 -8 6 -1 13 -3 18 -5 4 -1 16 -4 27
-5 11 -1 21 -3 23 -5 4 -3 39 -9 82 -15 22 -2 56 -7 75 -9 19 -3 60 -8 90 -12
52 -7 106 -11 159 -13 13 -1 22 -4 19 -7 -4 -3 1 -13 10 -23 14 -14 29 -16 77
-13 67 5 58 5 315 -2 102 -3 210 -9 240 -12 76 -9 128 -8 143 4 15 13 123 12
157 -1 64 -24 76 -25 116 -4 30 15 57 20 119 19 44 -1 249 -3 455 -5 206 -3
380 -5 385 -5 40 -4 417 8 425 13 5 3 10 1 10 -5 0 -6 5 -8 11 -4 7 4 30 8 53
10 23 1 55 7 73 12 17 6 34 8 36 6 3 -3 21 4 41 15 20 12 37 20 39 20 7 -3 57
26 57 33 0 4 5 8 11 8 29 0 128 138 114 160 -3 5 -2 10 3 10 12 0 13 209 1
284 -5 32 -11 75 -14 95 -2 20 -4 36 -5 36 -1 0 -4 14 -6 30 -8 55 -26 169
-31 200 -3 17 -6 39 -7 50 -9 76 -19 142 -24 150 -4 6 -8 21 -10 35 -2 14 -7
27 -13 28 -5 2 -7 8 -3 13 3 5 1 9 -4 9 -5 0 -12 13 -16 30 -3 16 -9 44 -12
60 -4 16 -10 30 -15 30 -5 0 -9 13 -9 28 0 15 -4 32 -9 37 -11 13 -31 90 -36
142 -4 37 0 46 29 75 34 34 56 84 56 125 0 23 -31 75 -44 74 -20 -2 -25 2 -30
26 -4 16 -9 45 -11 65 -3 21 -10 57 -16 80 -6 24 -11 53 -12 66 0 12 -4 22 -7
22 -3 0 -6 8 -7 18 -5 63 -116 321 -148 344 -5 4 -6 8 -2 8 8 0 -94 102 -136
136 -25 21 -208 106 -257 119 -3 1 -21 9 -40 17 -35 15 -71 30 -80 33 -3 1
-18 7 -35 14 -31 12 -37 15 -117 50 -26 12 -55 21 -63 21 -8 0 -15 4 -15 9 0
5 -13 12 -30 16 -16 4 -30 11 -30 16 0 6 -4 8 -8 5 -4 -2 -27 4 -50 14 -23 11
-50 21 -60 22 -9 2 -19 5 -22 8 -3 3 -41 23 -84 45 -119 60 -113 47 -114 252
0 178 3 200 41 256 11 16 17 30 14 33 -3 3 1 17 8 31 8 15 12 30 9 35 -3 4 8
8 24 8 24 0 32 6 41 30 5 17 10 32 11 35 0 3 7 23 15 45 8 22 14 42 15 45 0 3
0 6 1 8 3 10 10 111 10 147 0 69 -3 80 -22 80 -10 0 -21 5 -24 10 -4 6 -11 7
-17 4 -8 -5 -9 -1 -4 12 7 18 11 31 21 75 2 11 7 30 10 40 8 24 8 136 1 195
-14 114 -96 265 -201 368 -39 39 -85 78 -101 86 -16 8 -36 20 -44 26 -8 7 -17
13 -20 14 -29 5 -50 14 -50 20 0 14 -199 47 -212 35z m-919 -3157 c12 -40 18
-104 25 -273 3 -71 10 -144 14 -160 5 -17 9 -138 10 -270 0 -132 2 -258 6
-280 3 -22 8 -104 12 -182 8 -165 14 -158 -97 -123 -35 10 -66 19 -69 18 -3 0
-29 14 -58 31 -29 17 -55 31 -58 31 -3 0 -25 14 -49 30 -24 17 -48 30 -54 30
-6 0 -11 5 -11 10 0 6 -6 10 -13 10 -7 0 -27 13 -44 29 -24 22 -31 35 -28 57
2 16 6 49 9 74 7 63 25 120 37 120 6 0 8 4 5 9 -3 4 1 17 9 27 8 10 15 27 15
37 0 9 5 17 12 17 6 0 9 2 6 6 -3 3 1 26 9 52 14 44 28 95 37 133 2 8 18 69
36 135 17 65 33 126 35 134 2 8 4 16 4 18 1 1 1 5 2 10 0 4 4 12 8 17 5 6 12
24 16 40 12 44 12 45 15 50 1 3 3 8 5 13 12 45 67 152 77 152 5 0 7 4 3 9 -3
5 3 12 12 14 41 11 52 6 62 -25z m2154 -144 c1 -11 5 -23 9 -29 3 -5 9 -26 12
-45 3 -19 10 -50 15 -68 5 -18 11 -36 12 -40 1 -4 5 -17 10 -30 5 -13 9 -27 9
-33 0 -5 8 -35 19 -66 30 -94 56 -187 53 -195 -1 -5 2 -8 7 -8 5 0 11 -12 14
-27 2 -16 21 -80 42 -143 20 -63 41 -133 47 -155 5 -22 12 -47 15 -55 4 -8 8
-25 10 -37 2 -12 10 -39 17 -61 15 -41 13 -95 -3 -100 -5 -2 -28 -16 -50 -33
-23 -16 -45 -29 -49 -29 -5 0 -17 -9 -27 -20 -10 -11 -24 -20 -32 -20 -7 0
-13 -5 -13 -11 0 -5 -4 -8 -9 -5 -5 3 -19 -3 -32 -13 -13 -10 -43 -26 -66 -36
-24 -11 -43 -23 -43 -29 0 -5 -3 -6 -6 -3 -4 3 -16 1 -28 -5 -11 -7 -23 -13
-26 -13 -3 -1 -22 -9 -44 -18 -21 -9 -40 -17 -42 -17 -2 0 -29 -11 -59 -26
-59 -26 -94 -25 -93 4 0 9 -3 42 -7 72 -14 102 -8 242 13 310 7 25 16 56 18
70 3 14 7 32 9 40 7 22 13 75 20 159 3 41 8 78 11 83 3 4 -1 8 -8 8 -8 0 -9 3
-2 8 5 4 12 30 14 57 6 87 6 91 12 101 3 5 4 17 3 27 -2 9 1 17 6 17 6 0 8 4
5 9 -3 4 4 41 15 82 12 41 23 83 25 94 2 11 15 54 30 95 14 41 28 85 31 98 3
12 9 22 14 22 5 0 9 6 9 13 0 7 17 32 38 56 l37 43 17 -40 c10 -22 19 -48 21
-58z"></path>
<path d="M2050 123 c-14 -7 -33 -13 -42 -13 -10 0 -18 -3 -18 -8 0 -4 -11 -19
-24 -34 -14 -14 -22 -28 -19 -32 3 -3 -2 -8 -11 -12 -9 -3 -16 -10 -16 -15 0
-12 257 -12 264 0 6 9 -25 54 -58 84 -10 9 -16 17 -12 17 4 0 1 6 -6 13 -15
17 -26 17 -58 0z"></path>
</g>
</svg>
